<?xml version="1.0" standalone="no"?><!DOCTYPE svg PUBLIC "-//W3C//DTD SVG 1.1//EN" "http://www.w3.org/Graphics/SVG/1.1/DTD/svg11.dtd"><svg t="1574389399658" class="icon" viewBox="0 0 1024 1024" version="1.1" xmlns="http://www.w3.org/2000/svg" p-id="2761" xmlns:xlink="http://www.w3.org/1999/xlink" width="200" height="200"><defs><style type="text/css"></style></defs><path d="M524.4 394.9c-5.1-1.3-10.6-2-15.9-2-30.6 0.2-43.1 9-105.2 94.9 28.7 19 65.5 30.3 105.7 30 39-0.2 74.8-11.4 102.9-29.8-61.2-86.2-68.3-88.1-87.5-93.1zM692.2 603.5c-4-5.8-7.5-10.9-11.3-16.3-33.4 22.6-72.5 39-115.1 46.8 31.8 45.9 65.6 95.4 92.8 135.8-32.3 0.6-72.5 1.1-120.5 1.4-69.7 0.5-133.3 0.4-181.7 0.1 25.8-40.2 59.8-90.8 92.3-137.6-42.6-8-81.7-24.4-115-47.2-35.3 51.2-68.3 101-91.4 138.2-28.5 45.8-45.8 75.2-46.6 101.5-0.2 3.7 0 7.5 0.5 11.3 7.1 52 56.9 53.4 83.6 54.1 16.2 0.4 39.1 0.8 66.4 1 54 0.4 124.3 0.4 192.8 0 63.6-0.4 118.5-1.2 158.8-2.1 81.4-2 118.6-2.9 128.2-53.3 5.5-29.8 5.7-31-133.8-233.7z" fill="#00A9DC" p-id="2762"></path><path d="M448.6 633.6c19.7 3.7 40.2 5.7 61.2 5.6 19.2-0.1 37.9-2 56-5.3-21.2-30.6-41.5-59.6-58.3-83-17.2 23.3-37.7 52.2-58.9 82.7z" fill="#FE506B" p-id="2763"></path><path d="M403.3 487.8c-35.9-23.8-59-59.5-59.3-99.6-0.5-74.5 77.9-169.5 166.6-170 86.4-0.5 161.1 91.9 161.6 168 0.3 41-23.3 77.7-60.4 101.9 17.8 25 40.5 57.7 69 99.1 68.8-46.5 113.3-119.6 112.7-201.8C792.6 219.2 643 96 509.9 96.8c-162.8 1-288 157.9-287.2 292.2 0.5 80.4 44 151.7 110.9 197.5 13.2-19.2 26.7-38.5 40.2-57.5 11-15.4 20.8-29.1 29.5-41.2z" fill="#FE506B" p-id="2764"></path><path d="M507.5 550.9c16.8 23.5 37.1 52.5 58.3 83 42.7-7.8 81.7-24.2 115.1-46.8-28.5-41.4-51.2-74-69-99.1-28.1 18.4-63.9 29.5-102.9 29.8-40.1 0.3-77-11.1-105.7-30-8.8 12.1-18.5 25.8-29.5 41.2-13.5 19-27 38.3-40.2 57.5 33.3 22.8 72.3 39.2 115 47.2 21.2-30.6 41.7-59.5 58.9-82.8z" fill="#8F3694" p-id="2765"></path></svg>